<svg width="23" height="29" viewBox="0 0 23 29" fill="none" xmlns="http://www.w3.org/2000/svg">
<g clip-path="url(#clip0_190_518)">
<path d="M0.8 0C2.9 0 18.1 0.5 19.8 18.6C19.8 18.7 19.9 18.8 20.1 18.8H22.5C22.7 18.8 22.9 19.1 22.7 19.3C21 20.5 16.6 24.1 14.4 28.4C14.3 28.6 14 28.6 13.9 28.4C13.2 27 10.7 22.5 5.7 19.3C5.5 19.2 5.6 18.8 5.8 18.8H8.5C8.7 18.8 8.8 18.7 8.8 18.5C8.6 17.1 7.5 11.1 0.8 10.9C0.6 11 0.5 10.9 0.5 10.7V0.3C0.5 0.1 0.6 0 0.8 0Z" fill="#ABFF1D"/>
</g>
<defs>
<clipPath id="clip0_190_518">
<rect width="22.2" height="28.6" fill="white" transform="translate(0.5)"/>
</clipPath>
</defs>
</svg>
