<svg width="50" height="50" viewBox="0 0 50 50" fill="none" xmlns="http://www.w3.org/2000/svg">
<path fill-rule="evenodd" clip-rule="evenodd" d="M23 2C23 0.89543 23.8954 0 25 0C26.1046 0 27 0.895431 27 2V8C27 9.10457 26.1046 10 25 10C23.8954 10 23 9.10457 23 8V2ZM38 25.5C38 32.4036 32.4036 38 25.5 38C18.5964 38 13 32.4036 13 25.5C13 18.5964 18.5964 13 25.5 13C32.4036 13 38 18.5964 38 25.5ZM42.7687 7.41333C41.9872 6.63277 40.7209 6.63356 39.9403 7.4151L35.7003 11.6604C34.9198 12.4419 34.9205 13.7082 35.7021 14.4888C36.4836 15.2694 37.7499 15.2686 38.5305 14.487L42.7705 10.2418C43.5511 9.46022 43.5503 8.19389 42.7687 7.41333ZM42 27C40.8954 27 40 26.1046 40 25C40 23.8954 40.8954 23 42 23H48C49.1046 23 50 23.8954 50 25C50 26.1046 49.1046 27 48 27H42ZM35.7152 35.7021C34.9347 36.4836 34.9354 37.75 35.717 38.5305L39.9623 42.7705C40.7438 43.5511 42.0101 43.5503 42.7907 42.7687C43.5713 41.9872 43.5705 40.7209 42.7889 39.9403L38.5436 35.7003C37.7621 34.9198 36.4958 34.9206 35.7152 35.7021ZM23 42C23 40.8954 23.8954 40 25 40C26.1046 40 27 40.8954 27 42V48C27 49.1046 26.1046 50 25 50C23.8954 50 23 49.1046 23 48V42ZM14.502 35.7151C13.7205 34.9345 12.4541 34.9353 11.6736 35.7169L7.43359 39.9621C6.65303 40.7437 6.65382 42.01 7.43536 42.7906C8.21689 43.5711 9.48322 43.5703 10.2638 42.7888L14.5038 38.5435C15.2843 37.762 15.2835 36.4957 14.502 35.7151ZM2 27C0.89543 27 0 26.1046 0 25C0 23.8954 0.895431 23 2 23H8C9.10457 23 10 23.8954 10 25C10 26.1046 9.10457 27 8 27H2ZM7.41333 7.43549C6.63277 8.21703 6.63356 9.48336 7.4151 10.2639L11.6604 14.5039C12.4419 15.2845 13.7082 15.2837 14.4888 14.5021C15.2694 13.7206 15.2686 12.4543 14.487 11.6737L10.2418 7.43373C9.46022 6.65316 8.19389 6.65395 7.41333 7.43549Z" fill="#F4D756"/>
</svg>
