<svg width="50" height="50" viewBox="0 0 50 50" fill="none" xmlns="http://www.w3.org/2000/svg">
<g clip-path="url(#clip0_1_35)">
<rect x="13.7998" y="6" width="2.4" height="6" rx="1.2" fill="#F4D756"/>
<rect x="24.8125" y="9.59912" width="2.4" height="6" rx="1.2" transform="rotate(44.9642 24.8125 9.59912)" fill="#F4D756"/>
<rect x="7.85205" y="26.5811" width="2.4" height="6" rx="1.2" transform="rotate(44.9642 7.85205 26.5811)" fill="#F4D756"/>
<rect y="22.1997" width="2.4" height="6" rx="1.2" transform="rotate(-90 0 22.1997)" fill="#F4D756"/>
<rect x="3.6001" y="11.3101" width="2.4" height="6" rx="1.2" transform="rotate(-45.0358 3.6001 11.3101)" fill="#F4D756"/>
<path fill-rule="evenodd" clip-rule="evenodd" d="M22.4449 19.0138C22.4336 19.0276 22.4224 19.0415 22.4112 19.0554C22.0574 19.0188 21.6983 19 21.3349 19C16.3745 19 12.2303 22.4946 11.23 27.1561C11.0655 27.1855 10.9025 27.2189 10.741 27.2562C8.9528 25.8854 7.7998 23.7275 7.7998 21.3003C7.7998 17.1582 11.1577 13.8003 15.2998 13.8003C18.6446 13.8003 21.478 15.9898 22.4449 19.0138Z" fill="#F4D756"/>
<path fill-rule="evenodd" clip-rule="evenodd" d="M38.889 44.7776C38.889 44.7776 38.889 44.7776 38.889 44.7776C45.0255 44.7776 50.0001 39.803 50.0001 33.6665C50.0001 27.6871 45.2769 22.8108 39.3579 22.5651C38.0417 19.3025 34.8454 17 31.1113 17C28.1631 17 25.5502 18.4353 23.9331 20.6452C23.2125 20.442 22.4523 20.3333 21.6667 20.3333C17.2451 20.3333 13.6278 23.7769 13.3505 28.1285C8.99907 28.406 5.55566 32.0232 5.55566 36.4446C5.55566 41.047 9.28662 44.778 13.889 44.778C14.0757 44.778 14.2609 44.7718 14.4446 44.7597V44.7778H38.889V44.7776Z" fill="#D9D9D9"/>
</g>
<defs>
<clipPath id="clip0_1_35">
<rect width="50" height="50" fill="white"/>
</clipPath>
</defs>
</svg>
