<svg width="50" height="50" viewBox="0 0 50 50" fill="none" xmlns="http://www.w3.org/2000/svg">
<path fill-rule="evenodd" clip-rule="evenodd" d="M4.88414 32.4894C6.32331 30.1426 8.65412 28.4017 11.405 27.7382C12.5221 23.1072 16.6926 19.6667 21.6666 19.6667C22.1475 19.6667 22.6209 19.6989 23.0847 19.7612C25.1074 17.6489 27.9556 16.3335 31.1111 16.3335C35.2804 16.3335 38.9134 18.6299 40.8142 22.0269C42.0471 22.2052 43.2254 22.5522 44.325 23.0438C44.3372 22.8309 44.3434 22.6163 44.3434 22.4003C44.3434 16.2777 39.3801 11.3144 33.2576 11.3144C33.0217 11.3144 32.7877 11.3218 32.5555 11.3363C30.8496 6.48093 26.2243 3 20.7859 3C13.898 3 8.31431 8.58371 8.31431 15.4716L8.31433 15.4981C3.66354 15.852 0 19.7377 0 24.4791C0 27.9678 1.98342 30.9933 4.88414 32.4894Z" fill="#B7B7B7"/>
<path fill-rule="evenodd" clip-rule="evenodd" d="M38.889 46.3333C38.889 46.3333 38.889 46.3333 38.889 46.3333C45.0255 46.3333 50.0001 41.3587 50.0001 35.2222C50.0001 29.2428 45.2769 24.3665 39.3579 24.1208C38.0417 20.8581 34.8454 18.5557 31.1113 18.5557C28.1631 18.5557 25.5502 19.9909 23.9331 22.2008C23.2125 21.9976 22.4523 21.8889 21.6667 21.8889C17.2451 21.8889 13.6278 25.3325 13.3505 29.6841C8.99907 29.9617 5.55566 33.5789 5.55566 38.0003C5.55566 42.6027 9.28662 46.3336 13.889 46.3336C14.0757 46.3336 14.2609 46.3275 14.4446 46.3154V46.3335H38.889V46.3333Z" fill="#D9D9D9"/>
</svg>
