<svg width="50" height="50" viewBox="0 0 50 50" fill="none" xmlns="http://www.w3.org/2000/svg">
<path fill-rule="evenodd" clip-rule="evenodd" d="M36.3333 30.7776C36.3333 30.7776 36.3334 30.7776 36.3334 30.7776C42.4699 30.7776 47.4445 25.803 47.4445 19.6665C47.4445 13.6871 42.7213 8.81084 36.8022 8.56513C35.486 5.30247 32.2897 3 28.5556 3C25.6075 3 22.9945 4.43526 21.3774 6.64516C20.6568 6.44196 19.8966 6.33325 19.111 6.33325C14.6894 6.33325 11.0721 9.77687 10.7948 14.1285C6.44341 14.406 3 18.0232 3 22.4446C3 27.047 6.73095 30.778 11.3333 30.778C11.52 30.778 11.7053 30.7718 11.8889 30.7597V30.7778H36.3333V30.7776Z" fill="#D9D9D9"/>
<path d="M13.0003 34.0404L10.8428 39.723" stroke="#88E2FF" stroke-width="3" stroke-linecap="round"/>
<path d="M17.0003 39.9999L14.8428 45.6825" stroke="#88E2FF" stroke-width="3" stroke-linecap="round"/>
<path d="M35.0003 33.9999L32.8428 39.6825" stroke="#88E2FF" stroke-width="3" stroke-linecap="round"/>
<path d="M38.8167 39.9999L36.6592 45.6825" stroke="#88E2FF" stroke-width="3" stroke-linecap="round"/>
<path d="M27.6818 33H23.6028C23.5147 33 23.437 33.0576 23.4114 33.1418L21.0785 40.8188C21.0394 40.9472 21.1355 41.0769 21.2698 41.0769H24.4142C24.5478 41.0769 24.6438 41.2054 24.606 41.3336L22.9507 46.9361C22.8875 47.1498 23.1686 47.2911 23.3024 47.1128L29.7597 38.5124C29.8587 38.3806 29.7646 38.1923 29.5997 38.1923H26.5909C26.4558 38.1923 26.3595 38.0611 26.4002 37.9322L27.8726 33.2601C27.9132 33.1312 27.8169 33 27.6818 33Z" fill="#F4D756"/>
</svg>
