<svg width="50" height="50" viewBox="0 0 50 50" fill="none" xmlns="http://www.w3.org/2000/svg">
<path fill-rule="evenodd" clip-rule="evenodd" d="M36.3333 31.7776C36.3333 31.7776 36.3334 31.7776 36.3334 31.7776C42.4699 31.7776 47.4445 26.803 47.4445 20.6665C47.4445 14.6871 42.7213 9.81084 36.8022 9.56513C35.486 6.30247 32.2897 4 28.5556 4C25.6075 4 22.9945 5.43526 21.3774 7.64516C20.6568 7.44196 19.8966 7.33325 19.111 7.33325C14.6894 7.33325 11.0721 10.7769 10.7948 15.1285C6.44341 15.406 3 19.0232 3 23.4446C3 28.047 6.73095 31.778 11.3333 31.778C11.52 31.778 11.7053 31.7718 11.8889 31.7597V31.7778H36.3333V31.7776Z" fill="#D9D9D9"/>
<line x1="11.5" y1="37.5" x2="38.5" y2="37.5" stroke="#D9D9D9" stroke-width="3" stroke-linecap="round"/>
<line x1="11.5" y1="44.5" x2="38.5" y2="44.5" stroke="#D9D9D9" stroke-width="3" stroke-linecap="round"/>
</svg>
