<svg width="50" height="50" viewBox="0 0 50 50" fill="none" xmlns="http://www.w3.org/2000/svg">
<path fill-rule="evenodd" clip-rule="evenodd" d="M36.3333 30.7776C36.3333 30.7776 36.3334 30.7776 36.3334 30.7776C42.4699 30.7776 47.4445 25.803 47.4445 19.6665C47.4445 13.6871 42.7213 8.81084 36.8022 8.56513C35.486 5.30247 32.2897 3 28.5556 3C25.6075 3 22.9945 4.43526 21.3774 6.64516C20.6568 6.44196 19.8966 6.33325 19.111 6.33325C14.6894 6.33325 11.0721 9.77687 10.7948 14.1285C6.44341 14.406 3 18.0232 3 22.4446C3 27.047 6.73095 30.778 11.3333 30.778C11.52 30.778 11.7053 30.7718 11.8889 30.7597V30.7778H36.3333V30.7776Z" fill="#D9D9D9"/>
<path d="M14.1834 34.0404L10.0259 43.1871" stroke="#88E2FF" stroke-width="3" stroke-linecap="round"/>
<path d="M30.0657 34.0404L25.9082 43.1871" stroke="#88E2FF" stroke-width="3" stroke-linecap="round"/>
<path d="M21.8168 33.9968L15.8737 47.8036" stroke="#88E2FF" stroke-width="3" stroke-linecap="round"/>
<path d="M37.6498 33.8752L31.7067 47.682" stroke="#88E2FF" stroke-width="3" stroke-linecap="round"/>
</svg>
