<svg width="124" height="57" viewBox="0 0 124 57" fill="none" xmlns="http://www.w3.org/2000/svg">
<path d="M78.7916 45.4084C67.2809 54.6598 55.4105 53.4144 45.3387 45.4084C39.2236 50.3899 32.2093 53.2365 23.936 51.4574C18.1807 50.212 13.3246 47.1875 9.72752 42.5618C2.7132 33.4883 3.61248 19.967 11.7059 12.1389C19.6195 4.48867 33.2884 1.64208 45.1588 11.6051C56.3098 2.88747 67.4607 2.70955 78.7916 11.6051C84.9066 6.08988 92.2806 3.95494 100.734 5.73406C106.309 6.97944 110.626 9.82603 114.043 14.0959C121.237 23.1694 120.518 36.3349 112.424 44.6967C105.59 51.8132 91.9209 56.4389 78.7916 45.4084Z" stroke="black" stroke-width="10" stroke-miterlimit="10"/>
</svg>
