<svg width="16" height="28" viewBox="0 0 16 28" fill="none" xmlns="http://www.w3.org/2000/svg">
<path d="M4.3273 10.0232C4.3273 8.76738 4.3273 7.6511 4.3273 6.53482C4.3273 4.99994 4.74617 3.60459 5.72353 2.34877C6.98013 0.813889 8.6556 0.116215 10.4707 0.116215C11.8669 -0.0233202 13.2631 0.116215 14.6594 0.116215C15.0782 0.116215 15.3575 0.25575 15.3575 0.813889C15.3575 2.20924 15.3575 3.46505 15.3575 4.8604C15.3575 5.27901 15.2179 5.55807 14.6594 5.55807C13.682 5.55807 12.7047 5.55807 11.8669 5.55807C10.8896 5.55807 10.3311 5.97668 10.3311 6.95342C10.3311 7.93017 10.3311 8.90691 10.3311 9.88366C10.3311 9.88366 10.3311 10.0232 10.3311 10.1627C10.4707 10.1627 10.6103 10.1627 10.7499 10.1627C12.0065 10.1627 13.2631 10.1627 14.3801 10.1627C14.9386 10.1627 15.2179 10.3023 15.2179 10.9999C15.2179 12.3953 15.2179 13.6511 15.2179 15.0464C15.2179 15.6046 15.0782 15.8837 14.3801 15.8837C13.1235 15.8837 11.8669 15.8837 10.7499 15.8837C10.6103 15.8837 10.4707 15.8837 10.3311 15.8837C10.3311 16.0232 10.3311 16.1627 10.3311 16.3023C10.3311 19.7906 10.3311 23.4185 10.3311 26.9069C10.3311 27.7441 10.1915 27.8837 9.21409 27.8837C7.81787 27.8837 6.56126 27.8837 5.16504 27.8837C4.46692 27.8837 4.18768 27.7441 4.18768 27.0464C4.18768 23.4185 4.18768 19.9302 4.18768 16.3023C4.18768 16.1627 4.18768 16.0232 4.18768 15.8837C4.04805 15.8837 3.90843 15.8837 3.76881 15.8837C2.79145 15.8837 1.81409 15.8837 0.697111 15.8837C-0.00100233 15.8837 -0.140625 15.7441 -0.140625 15.0464C-0.140625 13.6511 -0.140625 12.3953 -0.140625 10.9999C-0.00100236 10.1627 0.13862 10.0232 0.836734 10.0232C1.81409 10.0232 2.79145 10.0232 3.90843 10.0232C4.04805 10.0232 4.04805 10.0232 4.3273 10.0232Z" fill="white"/>
</svg>
