<svg width="31" height="30" viewBox="0 0 31 30" fill="none" xmlns="http://www.w3.org/2000/svg">
<path d="M0.980469 23.1628C0.980469 17.7209 0.980469 12.2791 0.980469 6.83721C0.980469 6.69767 0.980469 6.69767 0.980469 6.55814C1.39934 2.93023 4.61066 0 8.38047 0C13.4069 0 18.5729 0 23.5993 0C27.6484 0 30.9993 3.34884 30.9993 7.39535C30.9993 12.4186 30.9993 17.5814 30.9993 22.6047C30.9993 25.9535 28.7654 28.7442 25.5541 29.7209C25.1352 29.8605 24.5767 29.8605 24.1578 30C18.7125 30 13.2673 30 7.82198 30C7.68236 30 7.68236 30 7.54273 30C4.47104 29.5814 2.3767 27.907 1.25972 24.9767C1.12009 24.2791 1.12009 23.7209 0.980469 23.1628ZM3.91254 14.9302C3.91254 17.4419 3.91254 19.9535 3.91254 22.4651C3.91254 24.9767 5.86726 26.9302 8.38047 26.9302C13.4069 26.9302 18.4333 26.9302 23.4597 26.9302C24.1578 26.9302 24.9956 26.7907 25.5541 26.3721C27.0899 25.5349 27.788 24.1395 27.788 22.3256C27.788 19.814 27.788 17.3023 27.788 14.7907C27.788 12.2791 27.788 9.90698 27.788 7.39535C27.788 4.88372 25.8333 2.93023 23.3201 2.93023C18.2937 2.93023 13.2673 2.93023 8.10122 2.93023C7.26349 2.93023 6.42575 3.2093 5.72764 3.62791C4.33141 4.46512 3.6333 5.86047 3.6333 7.39535C3.91255 10.0465 3.91254 12.5581 3.91254 14.9302Z" fill="white"/>
<path d="M16.0592 22.4653C11.8705 22.4653 8.51953 19.1164 8.51953 14.9304C8.51953 10.7443 11.8705 7.39551 16.0592 7.39551C20.2478 7.39551 23.5988 10.7443 23.5988 14.9304C23.4592 19.256 20.2478 22.4653 16.0592 22.4653ZM16.0592 10.4653C13.5459 10.4653 11.5912 12.4188 11.5912 14.9304C11.5912 17.442 13.5459 19.3955 16.0592 19.3955C18.5724 19.3955 20.5271 17.442 20.5271 14.9304C20.5271 12.4188 18.5724 10.4653 16.0592 10.4653Z" fill="white"/>
<path d="M24.9975 7.53488C24.9975 8.37209 24.2994 9.06977 23.4616 9.06977C22.6239 9.06977 21.9258 8.37209 21.9258 7.53488C21.9258 6.69767 22.6239 6 23.4616 6C24.2994 6 24.9975 6.69767 24.9975 7.53488Z" fill="white"/>
</svg>
