<?xml version="1.0" encoding="utf-8"?>
<!-- Generator: Adobe Illustrator 22.0.1, SVG Export Plug-In . SVG Version: 6.00 Build 0)  -->
<svg version="1.1" id="圖層_1" xmlns="http://www.w3.org/2000/svg" xmlns:xlink="http://www.w3.org/1999/xlink" x="0px" y="0px"
	 viewBox="0 0 531 269" style="enable-background:new 0 0 531 269;" xml:space="preserve">
<style type="text/css">
	.st0{fill:#0E0E0D;stroke:#BCFD55;stroke-width:10;}
</style>
<path class="st0" d="M151,71.1l-31.8-23.4c-6.1-4.5-14.7-1.3-15.8,5.9l-3.2,21c-1.3,8.4-9.8,13.7-18.4,11.4l-34.4-9.2
	c-8.4-2.3-15.3,6.1-11.1,13.7l6.6,11.9c4.6,8.4,0.1,18.5-9.2,20.7l-18.9,4.3c-9.5,2.2-10,15-0.6,18.5l6.9,2.6
	c10.3,3.8,13.5,16.5,6,23.9l-10.8,10.7c-6.5,6.4-0.8,17.4,8.6,16.6l49.9-4.5c8.6-0.8,16.3,5.7,16.9,14l1.8,25.9
	c0.5,7.1,8.4,11.5,14.8,8.4l50.9-25.1c6.4-3.2,14.4-1.3,18.9,4.3l21.2,26.4c3.9,4.8,11.1,5.3,15.3,1l26.5-27.6
	c6.1-6.3,16.8-5.8,22.7,1.2l25.2,29.8c4.5,5.4,13.1,4.8,16.5-1l17.6-30.8c4.2-7.3,13.9-9.4,21.3-4.6l29,18.9
	c4.9,3.2,11.4,1.8,14.2-3l13.8-24c3.3-5.8,10.4-8.4,17-6.5l45.8,13.4c7.5,2.2,14.3-4.2,12.2-11.5l-6.6-23.6
	c-2.3-8.2,3-16.3,11.5-17.7l35.9-5.9c9.8-1.6,10.9-14.6,1.7-18.4l-34.1-14.3c-6.3-2.6-10.2-9-9.4-15.5l4.2-36.5
	c0.8-7-6.2-12.7-13.2-10.7l-49,14.3c-9.3,2.7-19.1-4-19.8-13.5l-1.7-24.9c-0.5-7.6-9.4-12-15.8-7.8l-39.1,25.5
	c-5.9,3.8-13.9,3-19.1-2l-38.7-37.1c-4.9-4.7-12.8-3.6-15.8,2.1L251,48.4c-4.4,8.2-15.7,10-23.1,3.7l-27.9-24
	c-5-4.3-12.7-3-15.5,2.7L165.9,68C163.2,73.3,156.1,74.9,151,71.1z"/>
</svg>
