<svg width="50" height="50" viewBox="0 0 50 50" fill="none" xmlns="http://www.w3.org/2000/svg">
<g clip-path="url(#clip0_79_611)">
<rect x="13.7999" y="6" width="2.4" height="6" rx="1.2" fill="#F4D756"/>
<rect x="24.8123" y="9.59937" width="2.4" height="6" rx="1.2" transform="rotate(44.9642 24.8123 9.59937)" fill="#F4D756"/>
<rect x="7.85193" y="26.5811" width="2.4" height="6" rx="1.2" transform="rotate(44.9642 7.85193 26.5811)" fill="#F4D756"/>
<rect y="22.2" width="2.4" height="6" rx="1.2" transform="rotate(-90 0 22.2)" fill="#F4D756"/>
<rect x="3.59998" y="11.3103" width="2.4" height="6" rx="1.2" transform="rotate(-45.0358 3.59998 11.3103)" fill="#F4D756"/>
<path fill-rule="evenodd" clip-rule="evenodd" d="M22.445 19.0138C22.4338 19.0276 22.4225 19.0415 22.4113 19.0554C22.0575 19.0188 21.6985 19 21.335 19C16.3746 19 12.2304 22.4946 11.2301 27.1561C11.0657 27.1855 10.9026 27.2189 10.7411 27.2562C8.95292 25.8854 7.79993 23.7275 7.79993 21.3003C7.79993 17.1582 11.1578 13.8003 15.2999 13.8003C18.6447 13.8003 21.4781 15.9898 22.445 19.0138Z" fill="#F4D756"/>
<path fill-rule="evenodd" clip-rule="evenodd" d="M38.8889 44.7776C38.8889 44.7776 38.8889 44.7776 38.8889 44.7776C45.0254 44.7776 50 39.803 50 33.6665C50 27.6871 45.2768 22.8108 39.3578 22.5651C38.0415 19.3025 34.8452 17 31.1112 17C28.163 17 25.5501 18.4353 23.933 20.6452C23.2124 20.442 22.4522 20.3333 21.6666 20.3333C17.245 20.3333 13.6277 23.7769 13.3503 28.1285C8.99895 28.406 5.55554 32.0232 5.55554 36.4446C5.55554 41.047 9.2865 44.778 13.8889 44.778C14.0756 44.778 14.2608 44.7718 14.4445 44.7597V44.7778H38.8889V44.7776Z" fill="#D9D9D9"/>
</g>
<defs>
<clipPath id="clip0_79_611">
<rect width="50" height="50" fill="white"/>
</clipPath>
</defs>
</svg>
